<?xml version="1.0" encoding="utf-8"?>
<!-- Generator: Adobe Illustrator 26.2.1, SVG Export Plug-In . SVG Version: 6.00 Build 0)  -->
<svg version="1.1" id="Capa_1" xmlns="http://www.w3.org/2000/svg" xmlns:xlink="http://www.w3.org/1999/xlink" x="0px" y="0px"
	 viewBox="0 0 296.67 65.52" style="enable-background:new 0 0 296.67 65.52;" xml:space="preserve">
<style type="text/css">
	.st0{fill:#7400FC;}
</style>
<g>
	<path class="st0" d="M47.24,17.62c-4.77,0-7.15,1.43-7.15,4.29v-3.58H29.36v39.34h10.73V35.5c0-4.77,2.38-7.15,7.15-7.15
		c4.77,0,7.15,2.38,7.15,7.15v22.17h10.73V35.5C65.12,23.58,59.16,17.62,47.24,17.62z"/>
	<path class="st0" d="M88.6,27.56c4.77,0,7.15,1.29,7.15,3.86h10.73c0-9.66-5.96-14.48-17.88-14.48c-11.92,0-17.88,4.31-17.88,12.95
		c0,6.32,4.17,10.25,12.52,11.78c8.34,1.54,12.52,2.56,12.52,3.06c0,1.55-2.38,2.32-7.15,2.32c-4.77,0-7.15-1.29-7.15-3.86H70.71
		c0,9.66,5.96,14.48,17.88,14.48c11.92,0,17.88-4.31,17.88-12.95c0-6.32-4.17-10.25-12.52-11.78c-8.34-1.54-12.52-2.56-12.52-3.06
		C81.44,28.34,83.83,27.56,88.6,27.56z"/>
	<path class="st0" d="M126.37,7.27h-10.73V18h-3.58v10.73h3.58v10.73c0,11.92,5.96,17.88,17.88,17.88h3.58V46.61h-3.58
		c-4.77,0-7.15-2.38-7.15-7.15V28.73h10.73V18h-10.73V7.27z"/>
	<path class="st0" d="M167.73,21.77c0-2.86-2.38-4.29-7.15-4.29c-11.92,0-17.88,5.96-17.88,17.88v5.01
		c0,11.92,5.96,17.88,17.88,17.88c4.77,0,7.15-1.43,7.15-4.29v3.58h10.73V18.2h-10.73V21.77z M161.67,27.74
		c0.44-2.55,2.13-4.39,3.77-4.1c1.64,0.28,2.62,2.58,2.18,5.13c-0.44,2.55-2.13,4.39-3.77,4.1
		C162.21,32.58,161.23,30.29,161.67,27.74z M156.24,24.97c1.64-0.3,3.35,1.52,3.82,4.06c0.47,2.54-0.48,4.85-2.12,5.15
		c-1.64,0.3-3.35-1.52-3.82-4.06C153.64,27.58,154.6,25.27,156.24,24.97z M149.47,36.92c-1.45-1.98-1.6-4.34-0.33-5.28
		c1.27-0.94,3.49-0.1,4.94,1.88c1.45,1.98,1.6,4.34,0.33,5.28C153.14,39.74,150.93,38.9,149.47,36.92z M164.77,49.8
		c-2.1-0.09-3.51-2.14-3.51-2.14s-1.34,2.05-3.44,2.16c-2.62,0.14-4.42-1.76-4.59-3.9c-0.17-2.12,1.27-4.04,2.43-5.34
		c1.58-1.77,3.98-3.58,5.38-4.42c1.44,0.83,3.9,2.62,5.55,4.38c1.21,1.3,2.71,3.2,2.62,5.32C169.13,48.02,167.39,49.92,164.77,49.8z
		 M172.51,31.56c1.28,0.92,1.17,3.29-0.27,5.28c-1.43,1.99-3.63,2.86-4.92,1.94c-1.28-0.92-1.17-3.29,0.27-5.28
		C169.02,31.5,171.22,30.64,172.51,31.56z"/>
	<path class="st0" d="M201.84,7.61h-17.88v50.07h10.73v-14.3h7.15c11.92,0,17.88-5.96,17.88-17.88
		C219.72,13.57,213.76,7.61,201.84,7.61z M201.84,32.64h-7.15v-14.3h7.15c4.77,0,7.15,2.38,7.15,7.15
		C208.99,30.26,206.6,32.64,201.84,32.64z"/>
	<path class="st0" d="M243.03,17.6c-11.92,0-17.88,5.96-17.88,17.88v5.01c0,11.44,5.96,17.17,17.88,17.17h14.31V46.93h-14.31
		c-3.55,0-5.78-1.19-6.69-3.58h24.57v-7.87C260.92,23.56,254.96,17.6,243.03,17.6z M236.24,32.62c0.83-2.86,3.1-4.29,6.79-4.29
		c3.7,0,5.96,1.43,6.8,4.29H236.24z"/>
	<path class="st0" d="M291.79,29.05V18.32h-10.73V7.59h-10.73v10.73h-3.58v10.73h3.58v10.73c0,11.92,5.96,17.88,17.88,17.88h3.58
		V46.93h-3.58c-4.77,0-7.15-2.38-7.15-7.15V29.05H291.79z"/>
	<path class="st0" d="M20.47,46.97V18.28c2.58-0.4,4.57-2.61,4.57-5.3c0-2.98-2.41-5.39-5.39-5.39c-2.03,0-3.77,1.13-4.69,2.79
		c-0.92-1.66-2.66-2.79-4.69-2.79c-2.98,0-5.39,2.41-5.39,5.39c0,2.8,2.14,5.07,4.86,5.33v28.66c-2.65,0.33-4.72,2.57-4.72,5.32
		c0,2.98,2.41,5.39,5.39,5.39c2.03,0,3.77-1.13,4.69-2.79c0.92,1.66,2.66,2.79,4.69,2.79c2.98,0,5.39-2.41,5.39-5.39
		C25.19,49.54,23.13,47.3,20.47,46.97z"/>
</g>
</svg>
